<svg xmlns="http://www.w3.org/2000/svg" width="960" height="520" viewBox="0 0 960 520">
<rect width="100%" height="100%" fill="white"/>
<text x="480.0" y="28" text-anchor="middle" font-size="20" font-family="Arial, sans-serif" fill="#111827">IRSAM Learning Rate</text>
<line x1="74.0" y1="48" x2="74.0" y2="448" stroke="#e5e7eb"/>
<line x1="74" y1="48.0" x2="934" y2="48.0" stroke="#e5e7eb"/>
<text x="74.0" y="478" text-anchor="middle" font-size="12" fill="#4b5563">0</text>
<text x="64" y="52.0" text-anchor="end" font-size="12" fill="#4b5563">7.214e-06</text>
<line x1="246.0" y1="48" x2="246.0" y2="448" stroke="#e5e7eb"/>
<line x1="74" y1="128.0" x2="934" y2="128.0" stroke="#e5e7eb"/>
<text x="246.0" y="478" text-anchor="middle" font-size="12" fill="#4b5563">100</text>
<text x="64" y="132.0" text-anchor="end" font-size="12" fill="#4b5563">5.702e-06</text>
<line x1="418.0" y1="48" x2="418.0" y2="448" stroke="#e5e7eb"/>
<line x1="74" y1="208.0" x2="934" y2="208.0" stroke="#e5e7eb"/>
<text x="418.0" y="478" text-anchor="middle" font-size="12" fill="#4b5563">200</text>
<text x="64" y="212.0" text-anchor="end" font-size="12" fill="#4b5563">4.191e-06</text>
<line x1="590.0" y1="48" x2="590.0" y2="448" stroke="#e5e7eb"/>
<line x1="74" y1="288.0" x2="934" y2="288.0" stroke="#e5e7eb"/>
<text x="590.0" y="478" text-anchor="middle" font-size="12" fill="#4b5563">299</text>
<text x="64" y="292.0" text-anchor="end" font-size="12" fill="#4b5563">2.679e-06</text>
<line x1="762.0" y1="48" x2="762.0" y2="448" stroke="#e5e7eb"/>
<line x1="74" y1="368.0" x2="934" y2="368.0" stroke="#e5e7eb"/>
<text x="762.0" y="478" text-anchor="middle" font-size="12" fill="#4b5563">399</text>
<text x="64" y="372.0" text-anchor="end" font-size="12" fill="#4b5563">1.168e-06</text>
<line x1="934.0" y1="48" x2="934.0" y2="448" stroke="#e5e7eb"/>
<line x1="74" y1="448.0" x2="934" y2="448.0" stroke="#e5e7eb"/>
<text x="934.0" y="478" text-anchor="middle" font-size="12" fill="#4b5563">499</text>
<text x="64" y="452.0" text-anchor="end" font-size="12" fill="#4b5563">-3.435e-07</text>
<line x1="74" y1="448" x2="934" y2="448" stroke="#111827"/>
<line x1="74" y1="48" x2="74" y2="448" stroke="#111827"/>
<text x="480.0" y="474" text-anchor="middle" font-size="13" font-family="Arial, sans-serif" fill="#111827">Epoch</text>
<text x="18" y="248.0" transform="rotate(-90 18 248.0)" text-anchor="middle" font-size="13" font-family="Arial, sans-serif" fill="#111827">Learning rate</text>
<polyline points="74.0,429.8 75.7,338.8 77.4,247.7 79.2,157.2 80.9,66.2 82.6,66.2 84.3,66.2 86.1,66.2 87.8,66.2 89.5,66.2 91.2,66.2 93.0,66.2 94.7,66.2 96.4,66.2 98.1,66.2 99.9,66.7 101.6,66.7 103.3,66.7 105.0,66.7 106.7,66.7 108.5,67.2 110.2,67.2 111.9,67.2 113.6,67.2 115.4,67.8 117.1,67.8 118.8,67.8 120.5,67.8 122.3,68.3 124.0,68.3 125.7,68.3 127.4,68.8 129.2,68.8 130.9,69.4 132.6,69.4 134.3,69.4 136.0,69.9 137.8,69.9 139.5,70.4 141.2,70.4 142.9,70.9 144.7,70.9 146.4,71.5 148.1,71.5 149.8,72.0 151.6,72.0 153.3,72.5 155.0,72.5 156.7,73.1 158.4,73.6 160.2,73.6 161.9,74.1 163.6,74.1 165.3,74.7 167.1,75.2 168.8,75.2 170.5,75.7 172.2,76.2 174.0,76.2 175.7,76.8 177.4,77.3 179.1,77.8 180.9,77.8 182.6,78.4 184.3,78.9 186.0,79.4 187.7,79.9 189.5,80.5 191.2,80.5 192.9,81.0 194.6,81.5 196.4,82.1 198.1,82.6 199.8,83.1 201.5,83.6 203.3,84.2 205.0,84.7 206.7,85.2 208.4,85.2 210.2,85.8 211.9,86.3 213.6,86.8 215.3,87.4 217.0,87.9 218.8,88.9 220.5,89.5 222.2,90.0 223.9,90.5 225.7,91.1 227.4,91.6 229.1,92.1 230.8,92.6 232.6,93.2 234.3,93.7 236.0,94.8 237.7,95.3 239.5,95.8 241.2,96.4 242.9,96.9 244.6,97.9 246.3,98.5 248.1,99.0 249.8,99.5 251.5,100.1 253.2,101.1 255.0,101.6 256.7,102.2 258.4,103.2 260.1,103.8 261.9,104.3 263.6,105.4 265.3,105.9 267.0,106.4 268.7,107.5 270.5,108.0 272.2,108.5 273.9,109.6 275.6,110.1 277.4,111.2 279.1,111.7 280.8,112.2 282.5,113.3 284.3,113.8 286.0,114.9 287.7,115.4 289.4,116.5 291.2,117.0 292.9,118.1 294.6,118.6 296.3,119.6 298.0,120.2 299.8,121.2 301.5,122.3 303.2,122.8 304.9,123.9 306.7,124.4 308.4,125.5 310.1,126.0 311.8,127.1 313.6,128.1 315.3,128.6 317.0,129.7 318.7,130.8 320.5,131.3 322.2,132.3 323.9,133.4 325.6,133.9 327.3,135.0 329.1,136.1 330.8,136.6 332.5,137.6 334.2,138.7 336.0,139.8 337.7,140.3 339.4,141.3 341.1,142.4 342.9,143.5 344.6,144.0 346.3,145.0 348.0,146.1 349.8,147.2 351.5,147.7 353.2,148.8 354.9,149.8 356.6,150.9 358.4,151.9 360.1,153.0 361.8,153.5 363.5,154.6 365.3,155.6 367.0,156.7 368.7,157.8 370.4,158.8 372.2,159.9 373.9,160.4 375.6,161.5 377.3,162.5 379.1,163.6 380.8,164.6 382.5,165.7 384.2,166.8 385.9,167.8 387.7,168.9 389.4,169.9 391.1,171.0 392.8,172.0 394.6,173.1 396.3,174.2 398.0,175.2 399.7,176.3 401.5,177.3 403.2,178.4 404.9,179.5 406.6,180.5 408.3,181.6 410.1,182.6 411.8,183.7 413.5,184.7 415.2,185.8 417.0,186.9 418.7,187.9 420.4,189.0 422.1,190.0 423.9,191.1 425.6,192.2 427.3,193.2 429.0,194.3 430.8,195.3 432.5,196.4 434.2,197.5 435.9,198.5 437.6,199.6 439.4,200.6 441.1,201.7 442.8,203.3 444.5,204.3 446.3,205.4 448.0,206.4 449.7,207.5 451.4,208.6 453.2,209.6 454.9,210.7 456.6,211.7 458.3,212.8 460.1,214.4 461.8,215.4 463.5,216.5 465.2,217.6 466.9,218.6 468.7,219.7 470.4,220.7 472.1,221.8 473.8,223.4 475.6,224.4 477.3,225.5 479.0,226.6 480.7,227.6 482.5,228.7 484.2,229.7 485.9,231.3 487.6,232.4 489.4,233.4 491.1,234.5 492.8,235.6 494.5,236.6 496.2,237.7 498.0,239.3 499.7,240.3 501.4,241.4 503.1,242.4 504.9,243.5 506.6,244.6 508.3,245.6 510.0,247.2 511.8,248.3 513.5,249.3 515.2,250.4 516.9,251.4 518.6,252.5 520.4,254.1 522.1,255.1 523.8,256.2 525.5,257.3 527.3,258.3 529.0,259.4 530.7,260.4 532.4,262.0 534.2,263.1 535.9,264.1 537.6,265.2 539.3,266.3 541.1,267.3 542.8,268.4 544.5,269.4 546.2,271.0 547.9,272.1 549.7,273.1 551.4,274.2 553.1,275.3 554.8,276.3 556.6,277.4 558.3,278.4 560.0,280.0 561.7,281.1 563.5,282.1 565.2,283.2 566.9,284.3 568.6,285.3 570.4,286.4 572.1,287.4 573.8,288.5 575.5,289.6 577.2,290.6 579.0,292.2 580.7,293.3 582.4,294.3 584.1,295.4 585.9,296.4 587.6,297.5 589.3,298.5 591.0,299.6 592.8,300.7 594.5,301.7 596.2,302.8 597.9,303.8 599.7,304.9 601.4,306.0 603.1,307.0 604.8,308.1 606.5,309.1 608.3,310.2 610.0,311.3 611.7,312.3 613.4,313.4 615.2,314.4 616.9,315.5 618.6,316.5 620.3,317.6 622.1,318.7 623.8,319.7 625.5,320.8 627.2,321.8 628.9,322.9 630.7,324.0 632.4,325.0 634.1,326.1 635.8,327.1 637.6,328.2 639.3,328.7 641.0,329.8 642.7,330.8 644.5,331.9 646.2,333.0 647.9,334.0 649.6,335.1 651.4,336.1 653.1,336.7 654.8,337.7 656.5,338.8 658.2,339.8 660.0,340.9 661.7,342.0 663.4,342.5 665.1,343.5 666.9,344.6 668.6,345.7 670.3,346.7 672.0,347.2 673.8,348.3 675.5,349.4 677.2,350.4 678.9,351.0 680.7,352.0 682.4,353.1 684.1,353.6 685.8,354.7 687.5,355.7 689.3,356.8 691.0,357.3 692.7,358.4 694.4,359.4 696.2,359.9 697.9,361.0 699.6,362.1 701.3,362.6 703.1,363.7 704.8,364.2 706.5,365.2 708.2,366.3 710.0,366.8 711.7,367.9 713.4,368.4 715.1,369.5 716.8,370.0 718.6,371.1 720.3,371.6 722.0,372.7 723.7,373.2 725.5,374.2 727.2,374.8 728.9,375.8 730.6,376.4 732.4,377.4 734.1,377.9 735.8,379.0 737.5,379.5 739.3,380.6 741.0,381.1 742.7,381.7 744.4,382.7 746.1,383.2 747.9,384.3 749.6,384.8 751.3,385.4 753.0,386.4 754.8,386.9 756.5,387.5 758.2,388.0 759.9,389.1 761.7,389.6 763.4,390.1 765.1,391.2 766.8,391.7 768.5,392.2 770.3,392.8 772.0,393.8 773.7,394.4 775.4,394.9 777.2,395.4 778.9,395.9 780.6,396.5 782.3,397.5 784.1,398.1 785.8,398.6 787.5,399.1 789.2,399.6 791.0,400.2 792.7,400.7 794.4,401.2 796.1,401.8 797.8,402.3 799.6,402.8 801.3,403.4 803.0,403.9 804.7,404.4 806.5,404.9 808.2,405.5 809.9,406.0 811.6,406.5 813.4,407.1 815.1,407.6 816.8,408.1 818.5,408.6 820.3,409.2 822.0,409.7 823.7,409.7 825.4,410.2 827.1,410.8 828.9,411.3 830.6,411.8 832.3,412.4 834.0,412.4 835.8,412.9 837.5,413.4 839.2,413.9 840.9,413.9 842.7,414.5 844.4,415.0 846.1,415.0 847.8,415.5 849.6,416.1 851.3,416.1 853.0,416.6 854.7,417.1 856.4,417.1 858.2,417.6 859.9,417.6 861.6,418.2 863.3,418.7 865.1,418.7 866.8,419.2 868.5,419.2 870.2,419.8 872.0,419.8 873.7,420.3 875.4,420.3 877.1,420.8 878.8,420.8 880.6,420.8 882.3,421.3 884.0,421.3 885.7,421.9 887.5,421.9 889.2,421.9 890.9,422.4 892.6,422.4 894.4,422.4 896.1,422.9 897.8,422.9 899.5,422.9 901.3,423.5 903.0,423.5 904.7,423.5 906.4,423.5 908.1,423.5 909.9,424.0 911.6,424.0 913.3,424.0 915.0,424.0 916.8,424.0 918.5,424.0 920.2,424.5 921.9,424.5 923.7,424.5 925.4,424.5 927.1,424.5 928.8,424.5 930.6,424.5 932.3,424.5 934.0,424.5" fill="none" stroke="#2563eb" stroke-width="2.2"/>
<line x1="74" y1="502" x2="94" y2="502" stroke="#2563eb" stroke-width="3"/>
<text x="100" y="506" font-size="12" fill="#111827">lr</text>
</svg>
