<svg xmlns="http://www.w3.org/2000/svg" width="960" height="520" viewBox="0 0 960 520">
<rect width="100%" height="100%" fill="white"/>
<text x="480.0" y="28" text-anchor="middle" font-size="20" font-family="Arial, sans-serif" fill="#111827">IRSAM Training Loss</text>
<line x1="74.0" y1="48" x2="74.0" y2="448" stroke="#e5e7eb"/>
<line x1="74" y1="48.0" x2="934" y2="48.0" stroke="#e5e7eb"/>
<text x="74.0" y="478" text-anchor="middle" font-size="12" fill="#4b5563">0</text>
<text x="64" y="52.0" text-anchor="end" font-size="12" fill="#4b5563">2.013</text>
<line x1="246.0" y1="48" x2="246.0" y2="448" stroke="#e5e7eb"/>
<line x1="74" y1="128.0" x2="934" y2="128.0" stroke="#e5e7eb"/>
<text x="246.0" y="478" text-anchor="middle" font-size="12" fill="#4b5563">100</text>
<text x="64" y="132.0" text-anchor="end" font-size="12" fill="#4b5563">1.591</text>
<line x1="418.0" y1="48" x2="418.0" y2="448" stroke="#e5e7eb"/>
<line x1="74" y1="208.0" x2="934" y2="208.0" stroke="#e5e7eb"/>
<text x="418.0" y="478" text-anchor="middle" font-size="12" fill="#4b5563">200</text>
<text x="64" y="212.0" text-anchor="end" font-size="12" fill="#4b5563">1.17</text>
<line x1="590.0" y1="48" x2="590.0" y2="448" stroke="#e5e7eb"/>
<line x1="74" y1="288.0" x2="934" y2="288.0" stroke="#e5e7eb"/>
<text x="590.0" y="478" text-anchor="middle" font-size="12" fill="#4b5563">299</text>
<text x="64" y="292.0" text-anchor="end" font-size="12" fill="#4b5563">0.748</text>
<line x1="762.0" y1="48" x2="762.0" y2="448" stroke="#e5e7eb"/>
<line x1="74" y1="368.0" x2="934" y2="368.0" stroke="#e5e7eb"/>
<text x="762.0" y="478" text-anchor="middle" font-size="12" fill="#4b5563">399</text>
<text x="64" y="372.0" text-anchor="end" font-size="12" fill="#4b5563">0.3264</text>
<line x1="934.0" y1="48" x2="934.0" y2="448" stroke="#e5e7eb"/>
<line x1="74" y1="448.0" x2="934" y2="448.0" stroke="#e5e7eb"/>
<text x="934.0" y="478" text-anchor="middle" font-size="12" fill="#4b5563">499</text>
<text x="64" y="452.0" text-anchor="end" font-size="12" fill="#4b5563">-0.09523</text>
<line x1="74" y1="448" x2="934" y2="448" stroke="#111827"/>
<line x1="74" y1="48" x2="74" y2="448" stroke="#111827"/>
<text x="480.0" y="474" text-anchor="middle" font-size="13" font-family="Arial, sans-serif" fill="#111827">Epoch</text>
<text x="18" y="248.0" transform="rotate(-90 18 248.0)" text-anchor="middle" font-size="13" font-family="Arial, sans-serif" fill="#111827">Loss</text>
<polyline points="74.0,66.2 75.7,335.4 77.4,371.1 79.2,378.2 80.9,383.6 82.6,388.0 84.3,390.4 86.1,392.2 87.8,393.4 89.5,394.1 91.2,395.4 93.0,396.1 94.7,397.2 96.4,397.6 98.1,398.5 99.9,399.1 101.6,399.2 103.3,399.8 105.0,399.9 106.7,400.2 108.5,400.2 110.2,400.7 111.9,401.2 113.6,401.8 115.4,401.9 117.1,402.2 118.8,402.2 120.5,402.4 122.3,402.5 124.0,402.9 125.7,403.1 127.4,403.4 129.2,403.2 130.9,403.7 132.6,403.8 134.3,403.9 136.0,403.8 137.8,404.1 139.5,404.4 141.2,404.3 142.9,404.5 144.7,404.7 146.4,404.9 148.1,405.1 149.8,405.1 151.6,405.3 153.3,405.4 155.0,405.3 156.7,405.5 158.4,405.5 160.2,405.7 161.9,405.9 163.6,406.0 165.3,405.9 167.1,406.1 168.8,406.1 170.5,406.1 172.2,406.3 174.0,406.5 175.7,406.4 177.4,406.5 179.1,406.6 180.9,406.7 182.6,407.0 184.3,407.0 186.0,406.9 187.7,407.0 189.5,407.1 191.2,407.2 192.9,407.1 194.6,407.4 196.4,407.4 198.1,407.4 199.8,407.6 201.5,407.7 203.3,407.6 205.0,407.7 206.7,407.8 208.4,407.7 210.2,407.8 211.9,407.8 213.6,407.8 215.3,407.8 217.0,407.8 218.8,407.9 220.5,408.0 222.2,408.1 223.9,408.1 225.7,408.2 227.4,408.3 229.1,408.3 230.8,408.2 232.6,408.4 234.3,408.5 236.0,408.3 237.7,408.5 239.5,408.3 241.2,408.5 242.9,408.8 244.6,408.5 246.3,408.5 248.1,408.7 249.8,408.8 251.5,408.9 253.2,408.6 255.0,408.8 256.7,408.9 258.4,409.0 260.1,408.9 261.9,409.0 263.6,409.1 265.3,409.0 267.0,408.9 268.7,409.1 270.5,409.2 272.2,409.0 273.9,409.0 275.6,409.2 277.4,409.2 279.1,409.2 280.8,409.3 282.5,409.1 284.3,409.3 286.0,409.3 287.7,409.2 289.4,409.3 291.2,409.5 292.9,409.3 294.6,409.6 296.3,409.5 298.0,409.6 299.8,409.6 301.5,409.4 303.2,409.6 304.9,409.6 306.7,409.6 308.4,409.4 310.1,409.6 311.8,409.7 313.6,409.8 315.3,409.8 317.0,409.7 318.7,409.8 320.5,409.7 322.2,409.9 323.9,409.9 325.6,409.8 327.3,409.9 329.1,409.9 330.8,410.0 332.5,409.9 334.2,409.9 336.0,409.8 337.7,410.0 339.4,410.1 341.1,409.8 342.9,410.1 344.6,410.0 346.3,410.2 348.0,410.2 349.8,410.1 351.5,410.0 353.2,410.3 354.9,410.3 356.6,410.3 358.4,410.2 360.1,410.1 361.8,410.3 363.5,410.4 365.3,410.4 367.0,410.3 368.7,410.3 370.4,410.5 372.2,410.4 373.9,410.4 375.6,410.3 377.3,410.4 379.1,410.5 380.8,410.5 382.5,410.2 384.2,410.6 385.9,410.4 387.7,410.6 389.4,410.4 391.1,410.4 392.8,410.5 394.6,410.4 396.3,410.6 398.0,410.4 399.7,410.7 401.5,410.5 403.2,410.7 404.9,410.6 406.6,410.5 408.3,410.6 410.1,410.7 411.8,410.8 413.5,410.9 415.2,410.7 417.0,410.8 418.7,410.7 420.4,410.7 422.1,410.8 423.9,410.7 425.6,410.7 427.3,410.7 429.0,410.7 430.8,410.8 432.5,410.7 434.2,411.0 435.9,410.8 437.6,410.8 439.4,410.9 441.1,410.8 442.8,410.8 444.5,410.8 446.3,410.8 448.0,411.0 449.7,411.0 451.4,410.8 453.2,410.8 454.9,411.1 456.6,410.9 458.3,411.0 460.1,411.1 461.8,411.0 463.5,410.8 465.2,411.0 466.9,411.1 468.7,411.1 470.4,410.9 472.1,411.1 473.8,411.0 475.6,411.2 477.3,411.0 479.0,411.1 480.7,411.1 482.5,411.1 484.2,411.1 485.9,411.0 487.6,411.1 489.4,411.1 491.1,411.2 492.8,411.2 494.5,411.2 496.2,411.1 498.0,411.1 499.7,411.1 501.4,411.2 503.1,411.3 504.9,411.2 506.6,411.2 508.3,411.3 510.0,411.3 511.8,411.2 513.5,411.1 515.2,411.4 516.9,411.4 518.6,411.3 520.4,411.4 522.1,411.4 523.8,411.2 525.5,411.2 527.3,411.2 529.0,411.3 530.7,411.3 532.4,411.2 534.2,411.5 535.9,411.3 537.6,411.3 539.3,411.3 541.1,411.4 542.8,411.4 544.5,411.4 546.2,411.5 547.9,411.3 549.7,411.4 551.4,411.4 553.1,411.3 554.8,411.6 556.6,411.5 558.3,411.4 560.0,411.5 561.7,411.4 563.5,411.4 565.2,411.6 566.9,411.5 568.6,411.7 570.4,411.5 572.1,411.6 573.8,411.6 575.5,411.4 577.2,411.6 579.0,411.6 580.7,411.5 582.4,411.6 584.1,411.7 585.9,411.6 587.6,411.5 589.3,411.5 591.0,411.7 592.8,411.5 594.5,411.5 596.2,411.6 597.9,411.5 599.7,411.6 601.4,411.6 603.1,411.6 604.8,411.6 606.5,411.6 608.3,411.6 610.0,411.7 611.7,411.6 613.4,411.6 615.2,411.8 616.9,411.7 618.6,411.6 620.3,411.5 622.1,411.6 623.8,411.6 625.5,411.7 627.2,411.5 628.9,411.7 630.7,411.8 632.4,411.8 634.1,411.8 635.8,411.7 637.6,411.7 639.3,411.8 641.0,411.7 642.7,411.7 644.5,411.7 646.2,411.7 647.9,411.8 649.6,411.8 651.4,411.7 653.1,411.7 654.8,411.6 656.5,411.7 658.2,411.8 660.0,411.7 661.7,411.6 663.4,411.7 665.1,411.7 666.9,411.7 668.6,411.7 670.3,411.8 672.0,411.7 673.8,411.8 675.5,411.7 677.2,411.7 678.9,411.8 680.7,411.8 682.4,411.8 684.1,411.9 685.8,411.8 687.5,411.8 689.3,411.8 691.0,411.6 692.7,411.8 694.4,411.8 696.2,411.8 697.9,411.8 699.6,411.9 701.3,411.8 703.1,411.8 704.8,411.9 706.5,411.9 708.2,411.7 710.0,411.9 711.7,411.8 713.4,411.9 715.1,411.9 716.8,411.8 718.6,411.9 720.3,411.9 722.0,411.8 723.7,411.8 725.5,411.8 727.2,411.9 728.9,411.8 730.6,411.9 732.4,411.7 734.1,411.9 735.8,411.8 737.5,411.8 739.3,411.9 741.0,411.9 742.7,412.1 744.4,412.0 746.1,411.9 747.9,411.8 749.6,411.8 751.3,412.0 753.0,411.8 754.8,411.9 756.5,412.0 758.2,411.8 759.9,412.1 761.7,412.0 763.4,411.9 765.1,411.8 766.8,411.9 768.5,411.9 770.3,411.9 772.0,411.8 773.7,412.0 775.4,411.8 777.2,412.0 778.9,411.9 780.6,411.8 782.3,411.9 784.1,411.9 785.8,412.0 787.5,411.8 789.2,412.0 791.0,412.0 792.7,412.2 794.4,411.8 796.1,412.0 797.8,412.0 799.6,412.0 801.3,411.8 803.0,411.9 804.7,412.0 806.5,412.0 808.2,412.0 809.9,411.9 811.6,412.0 813.4,412.0 815.1,412.0 816.8,411.8 818.5,411.8 820.3,411.8 822.0,412.2 823.7,412.1 825.4,412.1 827.1,411.9 828.9,411.8 830.6,412.0 832.3,412.0 834.0,412.0 835.8,411.9 837.5,411.9 839.2,412.0 840.9,411.9 842.7,411.9 844.4,412.0 846.1,412.0 847.8,411.8 849.6,412.0 851.3,412.0 853.0,412.0 854.7,411.9 856.4,412.0 858.2,411.9 859.9,412.1 861.6,412.0 863.3,412.0 865.1,412.0 866.8,412.0 868.5,412.1 870.2,411.9 872.0,412.0 873.7,412.2 875.4,411.9 877.1,411.8 878.8,411.9 880.6,411.9 882.3,412.0 884.0,412.1 885.7,411.9 887.5,412.0 889.2,412.0 890.9,412.0 892.6,411.9 894.4,412.1 896.1,411.9 897.8,412.1 899.5,411.9 901.3,411.9 903.0,411.9 904.7,412.1 906.4,412.0 908.1,411.8 909.9,411.9 911.6,412.0 913.3,411.9 915.0,412.1 916.8,411.9 918.5,412.0 920.2,411.8 921.9,411.9 923.7,412.0 925.4,412.1 927.1,411.8 928.8,412.1 930.6,412.1 932.3,412.0 934.0,411.9" fill="none" stroke="#2563eb" stroke-width="2.2"/>
<polyline points="74.0,240.3 75.7,339.6 77.4,372.2 79.2,379.0 80.9,384.4 82.6,388.7 84.3,391.0 86.1,392.8 87.8,394.0 89.5,394.6 91.2,395.9 93.0,396.6 94.7,397.7 96.4,398.1 98.1,399.0 99.9,399.6 101.6,399.7 103.3,400.3 105.0,400.4 106.7,400.7 108.5,400.7 110.2,401.2 111.9,401.7 113.6,402.2 115.4,402.4 117.1,402.7 118.8,402.7 120.5,402.8 122.3,403.0 124.0,403.4 125.7,403.5 127.4,403.8 129.2,403.6 130.9,404.1 132.6,404.2 134.3,404.3 136.0,404.3 137.8,404.6 139.5,404.8 141.2,404.8 142.9,405.0 144.7,405.2 146.4,405.4 148.1,405.5 149.8,405.6 151.6,405.7 153.3,405.8 155.0,405.8 156.7,405.9 158.4,405.9 160.2,406.2 161.9,406.3 163.6,406.4 165.3,406.3 167.1,406.5 168.8,406.5 170.5,406.5 172.2,406.7 174.0,406.9 175.7,406.8 177.4,406.9 179.1,407.0 180.9,407.1 182.6,407.4 184.3,407.4 186.0,407.3 187.7,407.4 189.5,407.5 191.2,407.6 192.9,407.5 194.6,407.8 196.4,407.8 198.1,407.8 199.8,408.0 201.5,408.1 203.3,408.0 205.0,408.0 206.7,408.2 208.4,408.1 210.2,408.1 211.9,408.1 213.6,408.2 215.3,408.2 217.0,408.2 218.8,408.3 220.5,408.4 222.2,408.5 223.9,408.5 225.7,408.6 227.4,408.6 229.1,408.6 230.8,408.6 232.6,408.8 234.3,408.9 236.0,408.7 237.7,408.9 239.5,408.7 241.2,408.9 242.9,409.2 244.6,408.9 246.3,408.9 248.1,409.0 249.8,409.2 251.5,409.3 253.2,409.0 255.0,409.2 256.7,409.3 258.4,409.4 260.1,409.3 261.9,409.4 263.6,409.5 265.3,409.4 267.0,409.3 268.7,409.5 270.5,409.5 272.2,409.4 273.9,409.4 275.6,409.6 277.4,409.6 279.1,409.5 280.8,409.7 282.5,409.5 284.3,409.7 286.0,409.7 287.7,409.6 289.4,409.7 291.2,409.9 292.9,409.7 294.6,409.9 296.3,409.9 298.0,409.9 299.8,410.0 301.5,409.8 303.2,409.9 304.9,410.0 306.7,410.0 308.4,409.8 310.1,410.0 311.8,410.1 313.6,410.1 315.3,410.2 317.0,410.1 318.7,410.2 320.5,410.1 322.2,410.2 323.9,410.3 325.6,410.1 327.3,410.3 329.1,410.3 330.8,410.3 332.5,410.3 334.2,410.2 336.0,410.1 337.7,410.3 339.4,410.4 341.1,410.2 342.9,410.5 344.6,410.4 346.3,410.5 348.0,410.5 349.8,410.5 351.5,410.4 353.2,410.6 354.9,410.6 356.6,410.6 358.4,410.6 360.1,410.5 361.8,410.6 363.5,410.7 365.3,410.7 367.0,410.7 368.7,410.7 370.4,410.8 372.2,410.7 373.9,410.7 375.6,410.6 377.3,410.7 379.1,410.8 380.8,410.8 382.5,410.5 384.2,410.9 385.9,410.7 387.7,410.9 389.4,410.7 391.1,410.7 392.8,410.8 394.6,410.8 396.3,411.0 398.0,410.8 399.7,411.1 401.5,410.8 403.2,411.0 404.9,410.9 406.6,410.9 408.3,410.9 410.1,411.1 411.8,411.1 413.5,411.2 415.2,411.0 417.0,411.1 418.7,411.1 420.4,411.1 422.1,411.2 423.9,411.0 425.6,411.1 427.3,411.0 429.0,411.1 430.8,411.1 432.5,411.1 434.2,411.3 435.9,411.1 437.6,411.1 439.4,411.2 441.1,411.1 442.8,411.2 444.5,411.2 446.3,411.1 448.0,411.3 449.7,411.3 451.4,411.1 453.2,411.2 454.9,411.5 456.6,411.3 458.3,411.3 460.1,411.4 461.8,411.3 463.5,411.2 465.2,411.3 466.9,411.4 468.7,411.4 470.4,411.2 472.1,411.5 473.8,411.3 475.6,411.5 477.3,411.3 479.0,411.4 480.7,411.4 482.5,411.4 484.2,411.4 485.9,411.3 487.6,411.5 489.4,411.4 491.1,411.5 492.8,411.6 494.5,411.5 496.2,411.4 498.0,411.4 499.7,411.4 501.4,411.5 503.1,411.6 504.9,411.5 506.6,411.6 508.3,411.6 510.0,411.6 511.8,411.5 513.5,411.5 515.2,411.7 516.9,411.8 518.6,411.6 520.4,411.7 522.1,411.7 523.8,411.5 525.5,411.5 527.3,411.5 529.0,411.6 530.7,411.6 532.4,411.5 534.2,411.8 535.9,411.6 537.6,411.6 539.3,411.7 541.1,411.7 542.8,411.7 544.5,411.7 546.2,411.8 547.9,411.6 549.7,411.7 551.4,411.7 553.1,411.7 554.8,411.9 556.6,411.8 558.3,411.7 560.0,411.8 561.7,411.8 563.5,411.7 565.2,411.9 566.9,411.8 568.6,412.0 570.4,411.8 572.1,411.9 573.8,411.9 575.5,411.7 577.2,411.9 579.0,411.9 580.7,411.8 582.4,412.0 584.1,412.0 585.9,411.9 587.6,411.8 589.3,411.8 591.0,412.0 592.8,411.8 594.5,411.8 596.2,411.9 597.9,411.8 599.7,411.9 601.4,411.9 603.1,411.9 604.8,411.9 606.5,411.9 608.3,411.9 610.0,412.0 611.7,411.9 613.4,411.9 615.2,412.1 616.9,412.0 618.6,411.9 620.3,411.8 622.1,411.9 623.8,411.9 625.5,412.0 627.2,411.8 628.9,412.0 630.7,412.1 632.4,412.1 634.1,412.1 635.8,412.0 637.6,412.0 639.3,412.1 641.0,412.0 642.7,412.0 644.5,412.0 646.2,412.0 647.9,412.1 649.6,412.1 651.4,412.0 653.1,412.0 654.8,411.9 656.5,412.0 658.2,412.1 660.0,412.0 661.7,411.9 663.4,412.0 665.1,412.0 666.9,412.0 668.6,412.0 670.3,412.1 672.0,412.0 673.8,412.1 675.5,412.0 677.2,412.0 678.9,412.2 680.7,412.1 682.4,412.1 684.1,412.2 685.8,412.1 687.5,412.2 689.3,412.1 691.0,411.9 692.7,412.1 694.4,412.1 696.2,412.1 697.9,412.1 699.6,412.2 701.3,412.0 703.1,412.1 704.8,412.2 706.5,412.2 708.2,412.0 710.0,412.2 711.7,412.2 713.4,412.2 715.1,412.2 716.8,412.2 718.6,412.2 720.3,412.2 722.0,412.1 723.7,412.2 725.5,412.1 727.2,412.2 728.9,412.1 730.6,412.2 732.4,412.0 734.1,412.2 735.8,412.2 737.5,412.1 739.3,412.2 741.0,412.2 742.7,412.3 744.4,412.3 746.1,412.2 747.9,412.1 749.6,412.1 751.3,412.3 753.0,412.1 754.8,412.2 756.5,412.3 758.2,412.2 759.9,412.4 761.7,412.3 763.4,412.2 765.1,412.1 766.8,412.2 768.5,412.2 770.3,412.2 772.0,412.1 773.7,412.2 775.4,412.2 777.2,412.3 778.9,412.2 780.6,412.1 782.3,412.2 784.1,412.2 785.8,412.3 787.5,412.1 789.2,412.2 791.0,412.3 792.7,412.5 794.4,412.1 796.1,412.3 797.8,412.3 799.6,412.2 801.3,412.1 803.0,412.2 804.7,412.3 806.5,412.3 808.2,412.3 809.9,412.2 811.6,412.2 813.4,412.3 815.1,412.3 816.8,412.1 818.5,412.1 820.3,412.2 822.0,412.6 823.7,412.4 825.4,412.4 827.1,412.2 828.9,412.1 830.6,412.3 832.3,412.3 834.0,412.3 835.8,412.2 837.5,412.2 839.2,412.3 840.9,412.2 842.7,412.2 844.4,412.3 846.1,412.2 847.8,412.1 849.6,412.3 851.3,412.3 853.0,412.3 854.7,412.2 856.4,412.2 858.2,412.2 859.9,412.4 861.6,412.3 863.3,412.3 865.1,412.3 866.8,412.3 868.5,412.4 870.2,412.2 872.0,412.3 873.7,412.5 875.4,412.2 877.1,412.2 878.8,412.2 880.6,412.2 882.3,412.3 884.0,412.4 885.7,412.2 887.5,412.3 889.2,412.2 890.9,412.2 892.6,412.2 894.4,412.4 896.1,412.2 897.8,412.4 899.5,412.2 901.3,412.2 903.0,412.2 904.7,412.4 906.4,412.3 908.1,412.1 909.9,412.2 911.6,412.3 913.3,412.2 915.0,412.4 916.8,412.2 918.5,412.3 920.2,412.1 921.9,412.2 923.7,412.3 925.4,412.4 927.1,412.1 928.8,412.4 930.6,412.3 932.3,412.3 934.0,412.2" fill="none" stroke="#dc2626" stroke-width="2.2"/>
<polyline points="74.0,422.1 75.7,429.0 77.4,429.2 79.2,429.3 80.9,429.4 82.6,429.5 84.3,429.5 86.1,429.5 87.8,429.5 89.5,429.6 91.2,429.6 93.0,429.6 94.7,429.6 96.4,429.6 98.1,429.6 99.9,429.6 101.6,429.6 103.3,429.6 105.0,429.6 106.7,429.6 108.5,429.6 110.2,429.6 111.9,429.6 113.6,429.6 115.4,429.6 117.1,429.6 118.8,429.6 120.5,429.6 122.3,429.6 124.0,429.6 125.7,429.6 127.4,429.6 129.2,429.6 130.9,429.6 132.6,429.6 134.3,429.6 136.0,429.6 137.8,429.6 139.5,429.6 141.2,429.6 142.9,429.6 144.7,429.6 146.4,429.6 148.1,429.6 149.8,429.6 151.6,429.6 153.3,429.6 155.0,429.6 156.7,429.6 158.4,429.6 160.2,429.7 161.9,429.6 163.6,429.7 165.3,429.6 167.1,429.7 168.8,429.7 170.5,429.7 172.2,429.7 174.0,429.7 175.7,429.7 177.4,429.7 179.1,429.7 180.9,429.7 182.6,429.7 184.3,429.7 186.0,429.7 187.7,429.7 189.5,429.7 191.2,429.7 192.9,429.7 194.6,429.7 196.4,429.7 198.1,429.7 199.8,429.7 201.5,429.7 203.3,429.7 205.0,429.7 206.7,429.7 208.4,429.7 210.2,429.7 211.9,429.7 213.6,429.7 215.3,429.7 217.0,429.7 218.8,429.7 220.5,429.7 222.2,429.7 223.9,429.7 225.7,429.7 227.4,429.7 229.1,429.7 230.8,429.7 232.6,429.7 234.3,429.7 236.0,429.7 237.7,429.7 239.5,429.7 241.2,429.7 242.9,429.7 244.6,429.7 246.3,429.7 248.1,429.7 249.8,429.7 251.5,429.7 253.2,429.7 255.0,429.7 256.7,429.7 258.4,429.7 260.1,429.7 261.9,429.7 263.6,429.7 265.3,429.7 267.0,429.7 268.7,429.7 270.5,429.7 272.2,429.7 273.9,429.7 275.6,429.7 277.4,429.7 279.1,429.7 280.8,429.7 282.5,429.7 284.3,429.7 286.0,429.7 287.7,429.7 289.4,429.7 291.2,429.7 292.9,429.7 294.6,429.7 296.3,429.7 298.0,429.7 299.8,429.7 301.5,429.7 303.2,429.7 304.9,429.7 306.7,429.7 308.4,429.7 310.1,429.7 311.8,429.7 313.6,429.7 315.3,429.7 317.0,429.7 318.7,429.7 320.5,429.7 322.2,429.7 323.9,429.7 325.6,429.7 327.3,429.7 329.1,429.7 330.8,429.7 332.5,429.7 334.2,429.7 336.0,429.7 337.7,429.7 339.4,429.7 341.1,429.7 342.9,429.7 344.6,429.7 346.3,429.7 348.0,429.7 349.8,429.7 351.5,429.7 353.2,429.7 354.9,429.7 356.6,429.7 358.4,429.7 360.1,429.7 361.8,429.7 363.5,429.7 365.3,429.7 367.0,429.7 368.7,429.7 370.4,429.7 372.2,429.7 373.9,429.7 375.6,429.7 377.3,429.7 379.1,429.7 380.8,429.7 382.5,429.7 384.2,429.7 385.9,429.7 387.7,429.7 389.4,429.7 391.1,429.7 392.8,429.7 394.6,429.7 396.3,429.7 398.0,429.7 399.7,429.7 401.5,429.7 403.2,429.7 404.9,429.7 406.6,429.7 408.3,429.7 410.1,429.7 411.8,429.7 413.5,429.7 415.2,429.7 417.0,429.7 418.7,429.7 420.4,429.7 422.1,429.7 423.9,429.7 425.6,429.7 427.3,429.7 429.0,429.7 430.8,429.7 432.5,429.7 434.2,429.7 435.9,429.7 437.6,429.7 439.4,429.7 441.1,429.7 442.8,429.7 444.5,429.7 446.3,429.7 448.0,429.7 449.7,429.7 451.4,429.7 453.2,429.7 454.9,429.7 456.6,429.7 458.3,429.7 460.1,429.7 461.8,429.7 463.5,429.7 465.2,429.7 466.9,429.7 468.7,429.7 470.4,429.7 472.1,429.7 473.8,429.7 475.6,429.7 477.3,429.7 479.0,429.7 480.7,429.7 482.5,429.7 484.2,429.7 485.9,429.7 487.6,429.7 489.4,429.7 491.1,429.7 492.8,429.7 494.5,429.7 496.2,429.7 498.0,429.7 499.7,429.7 501.4,429.7 503.1,429.7 504.9,429.7 506.6,429.7 508.3,429.7 510.0,429.7 511.8,429.7 513.5,429.7 515.2,429.7 516.9,429.7 518.6,429.7 520.4,429.7 522.1,429.7 523.8,429.7 525.5,429.7 527.3,429.7 529.0,429.7 530.7,429.7 532.4,429.7 534.2,429.7 535.9,429.7 537.6,429.7 539.3,429.7 541.1,429.7 542.8,429.7 544.5,429.7 546.2,429.7 547.9,429.7 549.7,429.7 551.4,429.7 553.1,429.7 554.8,429.7 556.6,429.7 558.3,429.7 560.0,429.7 561.7,429.7 563.5,429.7 565.2,429.7 566.9,429.7 568.6,429.7 570.4,429.7 572.1,429.7 573.8,429.7 575.5,429.7 577.2,429.7 579.0,429.7 580.7,429.7 582.4,429.7 584.1,429.7 585.9,429.7 587.6,429.7 589.3,429.7 591.0,429.7 592.8,429.7 594.5,429.7 596.2,429.7 597.9,429.7 599.7,429.7 601.4,429.7 603.1,429.7 604.8,429.7 606.5,429.7 608.3,429.7 610.0,429.7 611.7,429.7 613.4,429.7 615.2,429.7 616.9,429.7 618.6,429.7 620.3,429.7 622.1,429.7 623.8,429.7 625.5,429.7 627.2,429.7 628.9,429.7 630.7,429.7 632.4,429.7 634.1,429.7 635.8,429.7 637.6,429.7 639.3,429.7 641.0,429.7 642.7,429.7 644.5,429.7 646.2,429.7 647.9,429.7 649.6,429.7 651.4,429.7 653.1,429.7 654.8,429.7 656.5,429.7 658.2,429.7 660.0,429.7 661.7,429.7 663.4,429.7 665.1,429.7 666.9,429.7 668.6,429.7 670.3,429.7 672.0,429.7 673.8,429.7 675.5,429.7 677.2,429.7 678.9,429.7 680.7,429.7 682.4,429.7 684.1,429.7 685.8,429.7 687.5,429.7 689.3,429.7 691.0,429.7 692.7,429.7 694.4,429.7 696.2,429.7 697.9,429.7 699.6,429.7 701.3,429.7 703.1,429.7 704.8,429.7 706.5,429.7 708.2,429.7 710.0,429.7 711.7,429.8 713.4,429.7 715.1,429.7 716.8,429.7 718.6,429.8 720.3,429.7 722.0,429.8 723.7,429.8 725.5,429.8 727.2,429.8 728.9,429.8 730.6,429.8 732.4,429.8 734.1,429.8 735.8,429.8 737.5,429.8 739.3,429.8 741.0,429.8 742.7,429.8 744.4,429.8 746.1,429.8 747.9,429.8 749.6,429.8 751.3,429.8 753.0,429.8 754.8,429.8 756.5,429.8 758.2,429.8 759.9,429.8 761.7,429.8 763.4,429.8 765.1,429.8 766.8,429.8 768.5,429.8 770.3,429.8 772.0,429.8 773.7,429.8 775.4,429.8 777.2,429.8 778.9,429.8 780.6,429.8 782.3,429.8 784.1,429.8 785.8,429.8 787.5,429.8 789.2,429.8 791.0,429.8 792.7,429.8 794.4,429.8 796.1,429.8 797.8,429.8 799.6,429.8 801.3,429.8 803.0,429.8 804.7,429.8 806.5,429.8 808.2,429.8 809.9,429.8 811.6,429.8 813.4,429.8 815.1,429.8 816.8,429.8 818.5,429.8 820.3,429.8 822.0,429.8 823.7,429.8 825.4,429.8 827.1,429.8 828.9,429.8 830.6,429.8 832.3,429.8 834.0,429.8 835.8,429.8 837.5,429.8 839.2,429.8 840.9,429.8 842.7,429.8 844.4,429.8 846.1,429.8 847.8,429.8 849.6,429.8 851.3,429.8 853.0,429.8 854.7,429.8 856.4,429.8 858.2,429.8 859.9,429.8 861.6,429.8 863.3,429.8 865.1,429.8 866.8,429.8 868.5,429.8 870.2,429.8 872.0,429.8 873.7,429.8 875.4,429.8 877.1,429.8 878.8,429.8 880.6,429.8 882.3,429.8 884.0,429.8 885.7,429.8 887.5,429.8 889.2,429.8 890.9,429.8 892.6,429.8 894.4,429.8 896.1,429.8 897.8,429.8 899.5,429.8 901.3,429.8 903.0,429.8 904.7,429.8 906.4,429.8 908.1,429.8 909.9,429.8 911.6,429.8 913.3,429.8 915.0,429.8 916.8,429.8 918.5,429.8 920.2,429.8 921.9,429.8 923.7,429.8 925.4,429.8 927.1,429.8 928.8,429.8 930.6,429.8 932.3,429.8 934.0,429.8" fill="none" stroke="#059669" stroke-width="2.2"/>
<polyline points="74.0,263.6 75.7,426.6 77.4,429.6 79.2,429.7 80.9,429.7 82.6,429.8 84.3,429.8 86.1,429.8 87.8,429.8 89.5,429.8 91.2,429.8 93.0,429.8 94.7,429.8 96.4,429.8 98.1,429.8 99.9,429.8 101.6,429.8 103.3,429.8 105.0,429.8 106.7,429.8 108.5,429.8 110.2,429.8 111.9,429.8 113.6,429.8 115.4,429.8 117.1,429.8 118.8,429.8 120.5,429.8 122.3,429.8 124.0,429.8 125.7,429.8 127.4,429.8 129.2,429.8 130.9,429.8 132.6,429.8 134.3,429.8 136.0,429.8 137.8,429.8 139.5,429.8 141.2,429.8 142.9,429.8 144.7,429.8 146.4,429.8 148.1,429.8 149.8,429.8 151.6,429.8 153.3,429.8 155.0,429.8 156.7,429.8 158.4,429.8 160.2,429.8 161.9,429.8 163.6,429.8 165.3,429.8 167.1,429.8 168.8,429.8 170.5,429.8 172.2,429.8 174.0,429.8 175.7,429.8 177.4,429.8 179.1,429.8 180.9,429.8 182.6,429.8 184.3,429.8 186.0,429.8 187.7,429.8 189.5,429.8 191.2,429.8 192.9,429.8 194.6,429.8 196.4,429.8 198.1,429.8 199.8,429.8 201.5,429.8 203.3,429.8 205.0,429.8 206.7,429.8 208.4,429.8 210.2,429.8 211.9,429.8 213.6,429.8 215.3,429.8 217.0,429.8 218.8,429.8 220.5,429.8 222.2,429.8 223.9,429.8 225.7,429.8 227.4,429.8 229.1,429.8 230.8,429.8 232.6,429.8 234.3,429.8 236.0,429.8 237.7,429.8 239.5,429.8 241.2,429.8 242.9,429.8 244.6,429.8 246.3,429.8 248.1,429.8 249.8,429.8 251.5,429.8 253.2,429.8 255.0,429.8 256.7,429.8 258.4,429.8 260.1,429.8 261.9,429.8 263.6,429.8 265.3,429.8 267.0,429.8 268.7,429.8 270.5,429.8 272.2,429.8 273.9,429.8 275.6,429.8 277.4,429.8 279.1,429.8 280.8,429.8 282.5,429.8 284.3,429.8 286.0,429.8 287.7,429.8 289.4,429.8 291.2,429.8 292.9,429.8 294.6,429.8 296.3,429.8 298.0,429.8 299.8,429.8 301.5,429.8 303.2,429.8 304.9,429.8 306.7,429.8 308.4,429.8 310.1,429.8 311.8,429.8 313.6,429.8 315.3,429.8 317.0,429.8 318.7,429.8 320.5,429.8 322.2,429.8 323.9,429.8 325.6,429.8 327.3,429.8 329.1,429.8 330.8,429.8 332.5,429.8 334.2,429.8 336.0,429.8 337.7,429.8 339.4,429.8 341.1,429.8 342.9,429.8 344.6,429.8 346.3,429.8 348.0,429.8 349.8,429.8 351.5,429.8 353.2,429.8 354.9,429.8 356.6,429.8 358.4,429.8 360.1,429.8 361.8,429.8 363.5,429.8 365.3,429.8 367.0,429.8 368.7,429.8 370.4,429.8 372.2,429.8 373.9,429.8 375.6,429.8 377.3,429.8 379.1,429.8 380.8,429.8 382.5,429.8 384.2,429.8 385.9,429.8 387.7,429.8 389.4,429.8 391.1,429.8 392.8,429.8 394.6,429.8 396.3,429.8 398.0,429.8 399.7,429.8 401.5,429.8 403.2,429.8 404.9,429.8 406.6,429.8 408.3,429.8 410.1,429.8 411.8,429.8 413.5,429.8 415.2,429.8 417.0,429.8 418.7,429.8 420.4,429.8 422.1,429.8 423.9,429.8 425.6,429.8 427.3,429.8 429.0,429.8 430.8,429.8 432.5,429.8 434.2,429.8 435.9,429.8 437.6,429.8 439.4,429.8 441.1,429.8 442.8,429.8 444.5,429.8 446.3,429.8 448.0,429.8 449.7,429.8 451.4,429.8 453.2,429.8 454.9,429.8 456.6,429.8 458.3,429.8 460.1,429.8 461.8,429.8 463.5,429.8 465.2,429.8 466.9,429.8 468.7,429.8 470.4,429.8 472.1,429.8 473.8,429.8 475.6,429.8 477.3,429.8 479.0,429.8 480.7,429.8 482.5,429.8 484.2,429.8 485.9,429.8 487.6,429.8 489.4,429.8 491.1,429.8 492.8,429.8 494.5,429.8 496.2,429.8 498.0,429.8 499.7,429.8 501.4,429.8 503.1,429.8 504.9,429.8 506.6,429.8 508.3,429.8 510.0,429.8 511.8,429.8 513.5,429.8 515.2,429.8 516.9,429.8 518.6,429.8 520.4,429.8 522.1,429.8 523.8,429.8 525.5,429.8 527.3,429.8 529.0,429.8 530.7,429.8 532.4,429.8 534.2,429.8 535.9,429.8 537.6,429.8 539.3,429.8 541.1,429.8 542.8,429.8 544.5,429.8 546.2,429.8 547.9,429.8 549.7,429.8 551.4,429.8 553.1,429.8 554.8,429.8 556.6,429.8 558.3,429.8 560.0,429.8 561.7,429.8 563.5,429.8 565.2,429.8 566.9,429.8 568.6,429.8 570.4,429.8 572.1,429.8 573.8,429.8 575.5,429.8 577.2,429.8 579.0,429.8 580.7,429.8 582.4,429.8 584.1,429.8 585.9,429.8 587.6,429.8 589.3,429.8 591.0,429.8 592.8,429.8 594.5,429.8 596.2,429.8 597.9,429.8 599.7,429.8 601.4,429.8 603.1,429.8 604.8,429.8 606.5,429.8 608.3,429.8 610.0,429.8 611.7,429.8 613.4,429.8 615.2,429.8 616.9,429.8 618.6,429.8 620.3,429.8 622.1,429.8 623.8,429.8 625.5,429.8 627.2,429.8 628.9,429.8 630.7,429.8 632.4,429.8 634.1,429.8 635.8,429.8 637.6,429.8 639.3,429.8 641.0,429.8 642.7,429.8 644.5,429.8 646.2,429.8 647.9,429.8 649.6,429.8 651.4,429.8 653.1,429.8 654.8,429.8 656.5,429.8 658.2,429.8 660.0,429.8 661.7,429.8 663.4,429.8 665.1,429.8 666.9,429.8 668.6,429.8 670.3,429.8 672.0,429.8 673.8,429.8 675.5,429.8 677.2,429.8 678.9,429.8 680.7,429.8 682.4,429.8 684.1,429.8 685.8,429.8 687.5,429.8 689.3,429.8 691.0,429.8 692.7,429.8 694.4,429.8 696.2,429.8 697.9,429.8 699.6,429.8 701.3,429.8 703.1,429.8 704.8,429.8 706.5,429.8 708.2,429.8 710.0,429.8 711.7,429.8 713.4,429.8 715.1,429.8 716.8,429.8 718.6,429.8 720.3,429.8 722.0,429.8 723.7,429.8 725.5,429.8 727.2,429.8 728.9,429.8 730.6,429.8 732.4,429.8 734.1,429.8 735.8,429.8 737.5,429.8 739.3,429.8 741.0,429.8 742.7,429.8 744.4,429.8 746.1,429.8 747.9,429.8 749.6,429.8 751.3,429.8 753.0,429.8 754.8,429.8 756.5,429.8 758.2,429.8 759.9,429.8 761.7,429.8 763.4,429.8 765.1,429.8 766.8,429.8 768.5,429.8 770.3,429.8 772.0,429.8 773.7,429.8 775.4,429.8 777.2,429.8 778.9,429.8 780.6,429.8 782.3,429.8 784.1,429.8 785.8,429.8 787.5,429.8 789.2,429.8 791.0,429.8 792.7,429.8 794.4,429.8 796.1,429.8 797.8,429.8 799.6,429.8 801.3,429.8 803.0,429.8 804.7,429.8 806.5,429.8 808.2,429.8 809.9,429.8 811.6,429.8 813.4,429.8 815.1,429.8 816.8,429.8 818.5,429.8 820.3,429.8 822.0,429.8 823.7,429.8 825.4,429.8 827.1,429.8 828.9,429.8 830.6,429.8 832.3,429.8 834.0,429.8 835.8,429.8 837.5,429.8 839.2,429.8 840.9,429.8 842.7,429.8 844.4,429.8 846.1,429.8 847.8,429.8 849.6,429.8 851.3,429.8 853.0,429.8 854.7,429.8 856.4,429.8 858.2,429.8 859.9,429.8 861.6,429.8 863.3,429.8 865.1,429.8 866.8,429.8 868.5,429.8 870.2,429.8 872.0,429.8 873.7,429.8 875.4,429.8 877.1,429.8 878.8,429.8 880.6,429.8 882.3,429.8 884.0,429.8 885.7,429.8 887.5,429.8 889.2,429.8 890.9,429.8 892.6,429.8 894.4,429.8 896.1,429.8 897.8,429.8 899.5,429.8 901.3,429.8 903.0,429.8 904.7,429.8 906.4,429.8 908.1,429.8 909.9,429.8 911.6,429.8 913.3,429.8 915.0,429.8 916.8,429.8 918.5,429.8 920.2,429.8 921.9,429.8 923.7,429.8 925.4,429.8 927.1,429.8 928.8,429.8 930.6,429.8 932.3,429.8 934.0,429.8" fill="none" stroke="#d97706" stroke-width="2.2"/>
<line x1="74" y1="502" x2="94" y2="502" stroke="#2563eb" stroke-width="3"/>
<text x="100" y="506" font-size="12" fill="#111827">loss</text>
<line x1="206" y1="502" x2="226" y2="502" stroke="#dc2626" stroke-width="3"/>
<text x="232" y="506" font-size="12" fill="#111827">dice</text>
<line x1="338" y1="502" x2="358" y2="502" stroke="#059669" stroke-width="3"/>
<text x="364" y="506" font-size="12" fill="#111827">bce</text>
<line x1="470" y1="502" x2="490" y2="502" stroke="#d97706" stroke-width="3"/>
<text x="496" y="506" font-size="12" fill="#111827">edge</text>
</svg>
